<svg width="528" height="240" fill="none" xmlns="http://www.w3.org/2000/svg"><g clip-path="url(#a)"><g clip-path="url(#b)"><path d="M410.76 30H277.342C269.973 30 264 35.97 264 43.333v80c0 7.364 5.973 13.334 13.342 13.334H410.76c7.368 0 13.341-5.97 13.341-13.334v-80c0-7.364-5.973-13.333-13.341-13.333Z" fill="#E1E3E1"/><path d="M377.405 46.667a3.334 3.334 0 1 0-3.335-3.334 3.334 3.334 0 0 0 3.335 3.334ZM390.747 46.667a3.334 3.334 0 1 0 0-6.667 3.335 3.335 0 0 0-3.336 3.333 3.335 3.335 0 0 0 3.336 3.334ZM404.089 46.667a3.334 3.334 0 1 0 0-6.667 3.335 3.335 0 0 0-3.336 3.333 3.335 3.335 0 0 0 3.336 3.334Z" fill="#1F1F1F"/><path d="M223.975 133.333H117.24c-7.368 0-13.341 5.97-13.341 13.334v66.666c0 7.364 5.973 13.334 13.341 13.334h106.735c7.368 0 13.341-5.97 13.341-13.334v-66.666c0-7.364-5.973-13.334-13.341-13.334Z" fill="#E1E3E1"/><path d="M117.24 193.333v-26.666" stroke="#1F1F1F" stroke-linecap="round"/><path d="M213.968 140v86.667H147.26L193.956 140h20.012Z" fill="#1F1F1F"/><path fill-rule="evenodd" clip-rule="evenodd" d="M264 40.5c-21.821 0-39.525 17.693-39.525 39.5v13.333a.5.5 0 0 1-1 0V80c0-22.36 18.152-40.5 40.525-40.5 22.373 0 40.525 18.14 40.525 40.5v13.333a.5.5 0 1 1-1 0V80c0-21.807-17.703-39.5-39.525-39.5Z" fill="#1F1F1F"/><path d="M310.696 93.333h-93.392c-12.895 0-23.348 10.447-23.348 23.334v86.666c0 12.887 10.453 23.334 23.348 23.334h93.392c12.895 0 23.348-10.447 23.348-23.334v-86.666c0-12.887-10.453-23.334-23.348-23.334Z" fill="#fff"/><path fill-rule="evenodd" clip-rule="evenodd" d="M217.304 93.833c-12.619 0-22.848 10.223-22.848 22.834v86.666c0 12.611 10.229 22.834 22.848 22.834h93.392c12.619 0 22.848-10.223 22.848-22.834v-86.666c0-12.611-10.229-22.834-22.848-22.834h-93.392Zm-23.848 22.834c0-13.163 10.677-23.834 23.848-23.834h93.392c13.171 0 23.848 10.671 23.848 23.834v86.666c0 13.163-10.677 23.834-23.848 23.834h-93.392c-13.171 0-23.848-10.671-23.848-23.834v-86.666Z" fill="#1F1F1F"/><path d="M260.114 158.05c-4.086 0-7.538-1.417-10.356-4.233-2.819-2.817-4.236-6.267-4.236-10.35 0-4.084 1.417-7.534 4.236-10.35 2.818-2.817 6.27-4.234 10.356-4.234s7.538 1.417 10.357 4.234c2.818 2.816 4.236 6.266 4.236 10.35 0 4.083-1.418 7.533-4.236 10.35-2.819 2.816-6.271 4.233-10.357 4.233ZM288.332 195l-4.87-5.833v-14.3c-2.334-.9-4.219-2.35-5.636-4.334-1.418-1.983-2.135-4.2-2.135-6.666 0-3.234 1.134-6 3.402-8.267 2.268-2.267 5.02-3.4 8.272-3.4 3.252 0 6.004 1.133 8.272 3.4 2.268 2.267 3.402 5.017 3.402 8.267 0 2.466-.717 4.683-2.135 6.666-1.417 1.984-3.302 3.417-5.637 4.334v.683l3.886 3.883-3.886 3.884 3.886 3.883-6.804 7.783-.017.017Zm-.967-25.283c1.618 0 3.002-.567 4.136-1.7 1.134-1.134 1.701-2.517 1.701-4.134 0-1.616-.567-3-1.701-4.133-1.134-1.133-2.518-1.7-4.136-1.7-1.618 0-3.002.567-4.136 1.7-1.134 1.133-1.701 2.517-1.701 4.133 0 1.617.567 3 1.701 4.134 1.134 1.133 2.518 1.7 4.136 1.7Zm-19.262-3.3c.317 2.65 1.15 5.083 2.485 7.3a21.156 21.156 0 0 0 5.103 5.733v11.667h-46.696v-9.234c0-2.2.617-4.216 1.851-6.033a12.403 12.403 0 0 1 4.769-4.183c3.82-1.95 7.805-3.4 11.925-4.367a54.957 54.957 0 0 1 12.591-1.467c1.301 0 2.635.05 3.986.15 1.367.1 2.685.25 3.986.434Z" fill="#1F1F1F"/><path d="M477.468 46.667c0-22.084-17.911-40-40.025-40-22.097 0-40.025 17.916-40.025 40v30c0 5.516 4.486 10 10.006 10h30.019c22.114 0 40.025-17.9 40.025-40Z" fill="#FFBA29"/><path fill-rule="evenodd" clip-rule="evenodd" d="M437.36 53.6a.5.5 0 0 1 .5.5c0 3.73 1.328 6.777 4.004 9.196 2.693 2.433 5.842 3.637 9.471 3.637.512 0 1.044-.032 1.583-.08a11.71 11.71 0 0 0 1.465-.255.5.5 0 1 1 .242.97c-.494.124-1.016.21-1.597.279l-.013.001c-.56.05-1.126.085-1.68.085-3.875 0-7.264-1.295-10.141-3.895-2.894-2.615-4.334-5.935-4.334-9.938a.5.5 0 0 1 .5-.5ZM437.51 20.617a32.88 32.88 0 0 0-8.311 1.066 36.386 36.386 0 0 0-7.847 3.091.5.5 0 0 1-.472-.881 37.403 37.403 0 0 1 8.062-3.176h.003a33.885 33.885 0 0 1 8.565-1.1c2.907 0 5.765.337 8.54 1.014a31.423 31.423 0 0 1 8.032 3.183.5.5 0 1 1-.49.872 30.43 30.43 0 0 0-7.778-3.083h-.001a35 35 0 0 0-8.303-.986ZM437.376 27.5a28.605 28.605 0 0 0-13.017 3.08c-4.081 2.048-7.49 4.93-10.246 8.635a.5.5 0 0 1-.803-.597c2.848-3.828 6.377-6.812 10.601-8.932a29.603 29.603 0 0 1 13.465-3.186 31.39 31.39 0 0 1 13.641 3.082l.002.001a28.022 28.022 0 0 1 10.695 8.958.5.5 0 0 1-.811.585 27.02 27.02 0 0 0-10.318-8.642 30.394 30.394 0 0 0-13.209-2.984Z" fill="#1F1F1F"/><path fill-rule="evenodd" clip-rule="evenodd" d="M437.376 34.05c-5.797 0-10.744 1.92-14.902 5.783-4.151 3.855-6.211 8.589-6.211 14.267 0 1.412.162 2.964.475 4.675.328 1.706.839 3.6 1.549 5.68a.5.5 0 1 1-.946.323c-.723-2.118-1.247-4.057-1.586-5.817l-.001-.004c-.32-1.755-.491-3.37-.491-4.857 0-5.955 2.175-10.955 6.53-15 4.347-4.038 9.54-6.05 15.583-6.05 6.044 0 11.269 2.012 15.649 6.049h.001c4.371 4.045 6.564 9.062 6.564 15.001 0 2.041-.759 3.77-2.257 5.196l-.002.002c-1.496 1.406-3.321 2.119-5.429 2.119-2.109 0-3.88-.697-5.407-2.098-1.537-1.394-2.314-3.145-2.314-5.219 0-1.799-.646-3.33-1.957-4.55-1.327-1.215-2.874-1.833-4.698-1.833-1.832 0-3.46.607-4.798 1.835l-.002.002c-1.327 1.203-1.987 2.717-1.987 4.546 0 4.757 1.431 8.72 4.245 11.937 2.852 3.241 6.436 5.473 10.764 6.664a.5.5 0 0 1-.266.965c-4.511-1.242-8.265-3.577-11.249-6.969l-.001-.001c-2.99-3.416-4.493-7.62-4.493-12.596 0-2.103.773-3.889 2.314-5.286 1.53-1.405 3.403-2.097 5.473-2.097 2.079 0 3.867.715 5.375 2.098l.002.002c1.523 1.415 2.278 3.216 2.278 5.283 0 1.792.657 3.274 1.987 4.48l.002.002c1.342 1.232 2.873 1.835 4.732 1.835 1.861 0 3.438-.62 4.743-1.847 1.304-1.241 1.945-2.711 1.945-4.47 0-5.66-2.076-10.41-6.243-14.266-4.192-3.863-9.173-5.784-14.971-5.784Z" fill="#1F1F1F"/><path fill-rule="evenodd" clip-rule="evenodd" d="M437.51 40.85c-3.811 0-7.074 1.286-9.799 3.832-2.716 2.538-4.077 5.673-4.077 9.418 0 3.824.69 7.128 2.066 9.894l.001.002c1.375 2.798 3.346 5.575 5.887 8.296a.5.5 0 0 1-.731.683c-2.595-2.78-4.627-5.635-6.053-8.537-1.459-2.933-2.17-6.396-2.17-10.338 0-4.021 1.475-7.42 4.395-10.149 2.912-2.72 6.42-4.101 10.481-4.101 4.059 0 7.568 1.363 10.481 4.102 2.92 2.728 4.395 6.127 4.395 10.148a.5.5 0 0 1-1 0c0-3.745-1.361-6.88-4.078-9.418l-.001-.001c-2.723-2.56-5.985-3.831-9.797-3.831Z" fill="#1F1F1F"/><path d="M103.899 226.667c22.105 0 40.025-17.909 40.025-40 0-22.092-17.92-40-40.025-40-22.106 0-40.026 17.908-40.026 40 0 22.091 17.92 40 40.026 40Z" fill="#6DD38A"/><path fill-rule="evenodd" clip-rule="evenodd" d="M103.899 162.167c-13.54 0-24.516 10.969-24.516 24.5 0 13.53 10.976 24.5 24.516 24.5 13.54 0 24.516-10.97 24.516-24.5 0-13.531-10.976-24.5-24.516-24.5Zm-25.516 24.5c0-14.084 11.424-25.5 25.516-25.5 14.092 0 25.516 11.416 25.516 25.5 0 14.083-11.424 25.5-25.516 25.5-14.092 0-25.516-11.417-25.516-25.5Z" fill="#1F1F1F"/><path d="M95.76 181.667a1.864 1.864 0 0 1-1.867 1.866 1.878 1.878 0 0 1-1.885-1.866c0-1.034.834-1.867 1.885-1.867 1.05 0 1.867.833 1.867 1.867ZM115.773 181.667a1.864 1.864 0 0 1-1.868 1.866 1.878 1.878 0 0 1-1.884-1.866c0-1.034.834-1.867 1.884-1.867 1.051 0 1.868.833 1.868 1.867Z" fill="#1F1F1F"/><path fill-rule="evenodd" clip-rule="evenodd" d="M104.65 189.917v-4.5h1v5.5h-3.736v-1h2.736ZM100.129 195.215a3.735 3.735 0 0 0 1.105 2.765 3.77 3.77 0 0 0 5.33 0l.707.707a4.77 4.77 0 0 1-6.744 0 4.731 4.731 0 0 1-1.397-3.502l.999.03Z" fill="#1F1F1F"/><path fill-rule="evenodd" clip-rule="evenodd" d="M176.228 67.15a4.271 4.271 0 0 1-4.57 0c-9.506-6.033-22.247-4.9-30.552 3.383-8.289 8.284-9.406 21.017-3.386 30.517a4.291 4.291 0 0 1 0 4.583c-6.037 9.5-4.903 22.234 3.386 30.517 8.305 8.283 21.046 9.417 30.552 3.383a4.273 4.273 0 0 1 4.57 0c9.506 6.034 22.247 4.9 30.536-3.383 8.305-8.283 9.422-21.017 3.385-30.517a4.291 4.291 0 0 1 0-4.583c6.037-9.5 4.903-22.233-3.385-30.517-8.289-8.283-21.03-9.416-30.536-3.383Z" fill="#0B57CE"/><path d="M153.93 86.667a3.334 3.334 0 1 0-3.335-3.334 3.334 3.334 0 0 0 3.335 3.334ZM173.943 86.667a3.335 3.335 0 0 0 3.336-3.334 3.335 3.335 0 0 0-6.671 0 3.334 3.334 0 0 0 3.335 3.334ZM193.956 86.667a3.334 3.334 0 1 0 0-6.667 3.335 3.335 0 0 0-3.336 3.333 3.335 3.335 0 0 0 3.336 3.334ZM153.93 106.667a3.334 3.334 0 1 0 0-6.667 3.334 3.334 0 1 0 0 6.667ZM173.943 106.667a3.335 3.335 0 1 0 0-6.667 3.334 3.334 0 1 0 0 6.667ZM193.956 106.667a3.335 3.335 0 1 0 0-6.67 3.335 3.335 0 0 0 0 6.67ZM153.93 126.667a3.334 3.334 0 1 0 0-6.667 3.334 3.334 0 1 0 0 6.667ZM173.943 126.667a3.335 3.335 0 1 0 0-6.667 3.334 3.334 0 1 0 0 6.667ZM193.956 126.667a3.335 3.335 0 1 0 0-6.67 3.335 3.335 0 0 0 0 6.67Z" fill="#fff"/><path fill-rule="evenodd" clip-rule="evenodd" d="M194.309 82.98a.5.5 0 0 1 0 .707l-39.171 39.146h38.818a.5.5 0 0 1 0 1h-41.233l40.879-40.853a.5.5 0 0 1 .707 0Z" fill="#fff"/><path fill-rule="evenodd" clip-rule="evenodd" d="M213.268 93.7c-10.974 1.917-19.312 11.45-19.312 22.967V142.9a24.47 24.47 0 0 0 12.808-6.767c8.305-8.283 9.423-21.016 3.385-30.516a4.293 4.293 0 0 1 0-4.584 24.573 24.573 0 0 0 3.102-7.333h.017Z" fill="#1F1F1F" stroke="#1F1F1F" stroke-linecap="round"/><path fill-rule="evenodd" clip-rule="evenodd" d="M383.576 226.667a.5.5 0 0 1 .5-.5h63.373a.5.5 0 0 1 0 1h-63.373a.5.5 0 0 1-.5-.5ZM470.297 226.667a.5.5 0 0 1 .5-.5h20.013a.5.5 0 0 1 0 1h-20.013a.5.5 0 0 1-.5-.5Z" fill="#1F1F1F"/><path d="M37.19 226.667h326.873" stroke="#1F1F1F" stroke-linecap="round"/><path d="M102.431 55.167c-3.902 3.9-11.357 5.366-11.89 4.833-.534-.533.95-7.967 4.852-11.867 1.952-1.95 5.104-1.95 7.038 0 1.951 1.95 1.951 5.1 0 7.034Z" fill="#E26962"/><path d="M78.666 64.833c3.903-3.9 11.357-5.366 11.89-4.833.535.533-.95 7.967-4.852 11.867-1.951 1.95-5.103 1.95-7.038 0-1.935-1.95-1.935-5.1 0-7.034Z" fill="#E26962"/><path d="M95.393 71.867c-3.902-3.9-5.37-11.35-4.853-11.867.534-.533 7.989.95 11.891 4.833 1.951 1.95 1.951 5.1 0 7.034-1.934 1.95-5.087 1.95-7.038 0Z" fill="#E26962"/><path d="M85.72 48.133c3.903 3.9 5.37 11.35 4.853 11.867-.533.533-7.988-.95-11.89-4.833-1.952-1.95-1.952-5.1 0-7.034 1.95-1.933 5.086-1.95 7.037 0Z" fill="#E26962"/><path d="m384.676 170.517 19.229-19.217c.567 4.967 4.736 8.783 9.89 8.733l8.155.134a9.844 9.844 0 0 1 10.006 10l.133 8.15a9.846 9.846 0 0 0 10.007 10l8.155.133a9.844 9.844 0 0 1 10.006 10l-.517 21.583c0 3.667-3.002 6.634-6.671 6.634h-8.088a9.956 9.956 0 0 1-7.071-2.934l-53.251-53.216h.017Z" fill="#FFBA29" stroke="#1F1F1F"/><path fill-rule="evenodd" clip-rule="evenodd" d="m391.764 162.743 63.197 63.157-.707.707-63.197-63.157.707-.707Z" fill="#1F1F1F"/><path d="M345.768 166.983c15.627 15.617 40.976 15.617 56.603 0 15.626-15.616 15.626-40.95 0-56.566-15.627-15.617-40.976-15.617-56.603 0-15.626 15.616-15.626 40.95 0 56.566Zm22.114-48.616c3.903 3.9 3.903 10.233 0 14.15-3.902 3.916-10.24 3.9-14.159 0-3.919-3.9-3.902-10.234 0-14.15 3.903-3.917 10.24-3.9 14.159 0Z" fill="#FFBA29"/><path fill-rule="evenodd" clip-rule="evenodd" d="M345.415 110.063c15.822-15.812 41.487-15.812 57.309 0 15.822 15.812 15.822 41.462 0 57.274-15.822 15.812-41.487 15.812-57.309 0-15.822-15.812-15.822-41.462 0-57.274Zm56.602.707c-15.431-15.421-40.464-15.421-55.895 0-15.431 15.422-15.431 40.438 0 55.86 15.431 15.421 40.464 15.421 55.895 0 15.431-15.422 15.431-40.438 0-55.86Zm-34.488 7.951c-3.725-3.707-9.746-3.72-13.452-.001-3.709 3.722-3.722 9.739-.001 13.442 3.725 3.708 9.746 3.721 13.452.002 3.708-3.722 3.707-9.739.001-13.443Zm-14.16-.707c4.099-4.114 10.753-4.094 14.866-.002l.001.001c4.098 4.096 4.097 10.745 0 14.857-4.099 4.114-10.753 4.094-14.865.001-4.117-4.097-4.097-10.747-.002-14.857ZM422.967 103.433l22.581 7.517.017-.017c1.167.4 1.534 1.884.65 2.767l-6.83 6.826 8.771 8.767a1 1 0 1 1-1.413 1.414l-8.773-8.767-6.814 6.81a1.669 1.669 0 0 1-2.769-.65l-7.521-22.567c-.45-1.3.8-2.533 2.101-2.1ZM453.62 103.333a.5.5 0 0 1 .5-.5h13.342a.5.5 0 0 1 0 1H454.12a.5.5 0 0 1-.5-.5ZM460.291 116.667a.5.5 0 0 1 .5-.5h26.684a.5.5 0 1 1 0 1h-26.684a.5.5 0 0 1-.5-.5ZM330.209 80a.5.5 0 0 1 .5-.5h10.006a.5.5 0 0 1 0 1h-10.006a.5.5 0 0 1-.5-.5ZM341.069 56.313a.5.5 0 0 1 0 .707l-13.342 13.334a.5.5 0 0 1-.707-.708l13.342-13.333a.5.5 0 0 1 .707 0ZM317.367 56.167a.5.5 0 0 1 .5.5v10a.5.5 0 0 1-1 0v-10a.5.5 0 0 1 .5-.5Z" fill="#1F1F1F"/></g></g><defs><clipPath id="a"><path fill="#fff" transform="translate(.5)" d="M0 0h527v240H0z"/></clipPath><clipPath id="b"><path fill="#fff" transform="translate(.5)" d="M0 0h527v240H0z"/></clipPath></defs></svg>